<svg xmlns="http://www.w3.org/2000/svg" version="1.1" viewBox="0 0 240 240" fill="#FFFFFF">
    <path d="M 36.06,0.00 Q 38.44,0.00 40.81,0.00 Q 52.64,1.21 61.62,7.78 Q 63.61,9.23 76.00,21.63 Q 97.54,43.16 119.45,65.08 A 0.79,0.78 44.7 0 0 120.56,65.08 Q 143.94,41.51 166.93,18.90 Q 166.98,18.85 172.21,13.27 Q 183.03,1.73 199.31,0.00 Q 201.69,0.00 204.06,0.00 Q 217.42,1.30 226.69,9.31 Q 238.84,19.81 240.00,36.81 Q 240.00,38.56 240.00,40.31 Q 239.12,51.60 233.15,60.32 Q 231.18,63.20 219.49,74.89 Q 197.45,96.93 174.95,119.43 A 0.81,0.81 45.2 0 0 174.95,120.58 Q 201.12,146.57 226.52,172.32 Q 232.92,178.81 235.28,183.18 Q 239.39,190.80 240.00,199.81 Q 240.00,201.69 240.00,203.56 Q 239.21,214.09 233.94,222.19 Q 223.38,238.41 203.44,240.00 Q 201.31,240.00 199.19,240.00 Q 190.50,239.22 183.11,235.22 Q 178.76,232.87 172.38,226.58 Q 146.48,201.02 120.29,174.66 A 0.40,0.40 44.5 0 0 119.72,174.66 Q 93.59,200.96 67.11,227.08 Q 61.15,232.96 56.92,235.24 Q 49.23,239.37 40.19,240.00 Q 38.19,240.00 36.19,240.00 Q 22.39,238.80 12.81,230.19 Q 1.48,220.00 0.00,203.94 Q 0.00,201.44 0.00,198.94 Q 0.88,190.38 4.83,183.11 Q 7.25,178.64 13.89,171.90 Q 39.27,146.11 65.18,120.57 A 0.71,0.71 45.0 0 0 65.18,119.55 Q 38.94,93.49 13.38,67.57 Q 7.18,61.29 4.83,56.96 Q 0.83,49.59 0.00,40.94 Q 0.00,38.31 0.00,35.69 Q 4.67,4.40 36.06,0.00 Z"/>
</svg>
