<svg xmlns="http://www.w3.org/2000/svg" version="1.1" viewBox="0 0 80 80" fill="#F2F6F7">
    <path d="M 30.56,0.00 Q 32.94,0.00 35.31,0.00 Q 54.18,2.66 61.83,17.63 Q 66.54,26.82 65.42,36.97 Q 63.92,50.56 52.31,59.31 Q 45.36,64.56 36.69,65.51 Q 28.66,66.40 20.64,63.17 Q 2.88,56.05 0.00,34.94 Q 0.00,32.81 0.00,30.69 Q 3.87,4.01 30.56,0.00 ZM 54.25,32.86 A 21.38 21.38 0.0 0 0 32.87,11.48 A 21.38 21.38 0.0 0 0 11.49,32.86 A 21.38 21.38 0.0 0 0 32.87,54.24 A 21.38 21.38 0.0 0 0 54.25,32.86 Z"/>
    <path d="M 80.00,73.31 Q 80.00,74.31 80.00,75.31 Q 78.87,78.96 75.19,80.00 Q 74.31,80.00 73.44,80.00 Q 72.74,79.70 72.02,79.44 Q 71.29,79.17 70.75,78.67 Q 65.73,74.00 60.94,69.09 Q 60.90,69.04 59.61,67.86 Q 57.97,66.35 57.47,64.26 Q 56.99,62.28 57.89,60.33 Q 59.37,57.14 62.84,57.31 Q 65.03,57.41 67.44,59.54 Q 73.82,65.17 79.31,71.69 Q 79.54,71.96 80.00,73.31 Z"/>
</svg>
