<svg xmlns="http://www.w3.org/2000/svg" version="1.1" viewBox="0 0 100 96">
    <path fill-opacity="0.800" fill="#c2c2c2"
          d="M 16.46,65.78 Q 9.08,58.98 4.83,49.58 Q 4.05,47.86 4.89,46.16 Q 16.26,22.98 40.09,18.00 Q 49.99,15.94 59.92,17.98 Q 83.99,22.92 94.98,46.37 Q 95.83,48.18 94.93,49.96 Q 83.23,73.18 59.67,78.04 Q 49.45,80.15 39.83,78.07 Q 26.74,75.25 16.46,65.78 ZM 70.74,48.01 A 20.79 20.79 0.0 0 0 49.95,27.22 A 20.79 20.79 0.0 0 0 29.16,48.01 A 20.79 20.79 0.0 0 0 49.95,68.80 A 20.79 20.79 0.0 0 0 70.74,48.01 Z"/>
    <circle fill="#c2c2c2" fill-opacity="0.800" cx="49.93" cy="48.00" r="12.35"/>
</svg>
