<svg xmlns="http://www.w3.org/2000/svg" version="1.1" viewBox="0 0 1024 1024">
    <path fill="#c2c2c2" d="M 150.05,344.80 Q 220.89,271.79 312.94,232.19 Q 399.41,194.98 495.24,191.83 Q 497.64,191.75 500.24,191.93 Q 501.91,192.04 503.59,192.15 Q 505.19,192.25 506.93,192.18 Q 530.62,191.30 554.25,193.29 Q 674.73,203.41 777.66,266.90 A 1.61,1.60 -48.2 0 0 779.51,266.79 L 871.82,192.30 Q 873.39,191.04 874.62,192.58 L 901.11,226.00 A 1.13,1.10 -38.7 0 1 900.92,227.55 L 818.65,293.82 A 0.85,0.85 -45.2 0 0 818.65,295.15 Q 929.24,381.11 981.54,510.83 A 2.85,2.83 44.9 0 1 981.55,512.97 Q 939.71,617.65 858.50,694.75 Q 802.11,748.28 730.71,782.74 Q 649.25,822.06 559.02,830.46 Q 541.80,832.06 520.75,832.00 Q 503.88,831.95 494.25,831.87 Q 483.50,831.79 474.26,831.08 Q 351.39,821.74 245.87,756.71 A 0.71,0.70 -48.3 0 0 245.06,756.76 L 152.14,831.67 Q 150.68,832.85 149.47,831.42 Q 135.61,815.05 123.25,798.69 Q 122.10,797.17 123.59,795.97 L 205.23,730.23 A 1.00,0.99 -45.5 0 0 205.22,728.67 Q 94.35,642.36 42.44,513.21 A 3.17,3.13 -45.3 0 1 42.44,510.82 Q 80.11,416.88 150.05,344.80 ZM 333.64,626.56 Q 363.18,602.53 392.09,579.61 Q 395.50,576.91 398.42,573.83 A 1.07,1.05 -37.5 0 0 398.59,572.60 Q 386.97,550.91 384.42,526.98 Q 383.37,517.11 383.65,507.01 Q 384.24,485.76 391.81,466.06 Q 401.79,440.10 421.46,420.59 Q 428.45,413.65 436.74,407.73 Q 474.67,380.63 521.81,383.97 Q 532.09,384.70 541.58,386.88 Q 572.00,393.89 595.67,414.35 A 0.86,0.86 -43.9 0 0 596.77,414.37 L 661.62,361.79 A 0.52,0.51 -42.5 0 0 661.66,361.02 Q 610.74,311.42 541.67,301.25 Q 531.56,299.76 521.77,299.32 Q 493.64,298.05 466.00,304.24 Q 428.66,312.60 396.84,333.19 Q 388.61,338.51 380.61,344.86 Q 327.71,386.83 307.97,451.62 Q 305.07,461.14 303.22,471.05 Q 287.71,554.04 332.76,626.42 A 0.59,0.59 -35.9 0 0 333.64,626.56 ZM 368.10,668.66 Q 413.93,710.46 475.18,721.58 Q 500.77,726.22 525.75,724.50 Q 569.82,721.47 609.47,700.93 Q 654.85,677.42 684.69,635.95 Q 715.80,592.70 722.99,539.75 Q 725.93,518.07 724.24,496.25 Q 720.11,443.04 691.20,397.61 A 0.64,0.63 -35.7 0 0 690.27,397.46 L 625.19,449.89 A 0.44,0.44 -33.1 0 0 625.07,450.45 Q 638.74,476.00 640.31,505.00 Q 642.06,537.40 628.31,566.63 Q 615.88,593.03 595.19,610.19 Q 552.09,645.93 496.15,639.46 Q 485.83,638.26 476.54,635.63 Q 449.57,627.96 428.27,609.59 A 0.79,0.78 -44.0 0 0 427.27,609.58 L 362.44,662.12 A 0.59,0.58 -41.2 0 0 362.38,662.98 Q 365.29,666.10 368.10,668.66 Z"/>
</svg>
