<svg xmlns="http://www.w3.org/2000/svg" version="1.1" viewBox="0 0 88 88">
    <path d="M 40.96,73.54 Q 29.40,63.87 14.50,64.00 Q 10.18,64.04 10.41,59.88 Q 10.50,58.20 10.50,58.11 Q 10.50,37.48 10.50,16.85 Q 10.50,16.71 10.38,14.67 Q 10.14,10.75 13.49,10.40 Q 14.20,10.33 18.01,10.59 Q 31.92,11.56 40.55,22.39 A 4.35,4.34 25.8 0 1 41.50,25.10 L 41.50,73.29 Q 41.50,73.99 40.96,73.54 Z"/>
    <path d="M 74.93,10.63 Q 77.75,10.91 77.75,13.74 Q 77.75,36.63 77.75,59.50 Q 77.75,64.29 73.00,64.24 Q 58.61,64.08 47.21,73.35 Q 46.50,73.93 46.50,73.01 L 46.50,24.75 A 2.42,2.34 62.0 0 1 46.87,23.47 Q 51.56,16.09 59.49,13.12 Q 63.02,11.80 67.05,11.02 Q 71.07,10.24 74.93,10.63 Z"/>
    <path d="M 0.00,75.19 Q 0.00,49.44 0.00,23.69 Q 1.52,20.58 4.97,21.27 A 0.65,0.65 -84.7 0 1 5.50,21.91 Q 5.50,40.66 5.50,58.70 Q 5.50,63.10 6.73,65.05 Q 8.06,67.18 10.47,68.14 Q 11.77,68.66 15.11,68.76 Q 26.65,69.12 36.06,75.72 Q 37.73,76.89 35.72,76.54 Q 19.78,73.73 4.25,77.50 Q 1.29,78.22 0.00,75.19 Z"/>
    <path d="M 88.00,23.81 Q 88.00,49.56 88.00,75.31 Q 86.63,78.19 83.75,77.50 Q 68.87,73.93 53.72,76.25 Q 50.15,76.80 53.21,74.88 Q 61.44,69.70 70.91,68.90 Q 77.17,68.36 78.45,67.73 Q 82.63,65.64 82.60,59.75 Q 82.50,41.50 82.50,22.32 A 0.90,0.90 0.6 0 1 83.42,21.42 Q 87.29,21.48 88.00,23.81 Z"/>
</svg>
