<svg xmlns="http://www.w3.org/2000/svg" version="1.1" viewBox="0 0 200 200">
    <path d="M 14.31,0.00 Q 34.31,0.00 54.31,0.00 Q 68.11,2.76 68.50,16.50 Q 68.96,32.79 72.46,46.01 Q 72.47,46.06 73.86,50.30 Q 76.04,56.96 73.57,62.69 Q 72.94,64.14 65.78,73.78 Q 59.90,81.70 53.93,89.42 A 1.00,0.99 -39.9 0 0 53.83,90.50 Q 73.07,127.05 109.14,146.04 A 1.50,1.49 -49.7 0 0 110.74,145.90 Q 119.41,139.34 127.52,133.23 Q 135.57,127.16 136.73,126.62 Q 142.26,124.00 148.69,126.09 Q 151.89,127.13 151.98,127.16 Q 166.76,131.20 182.05,131.68 Q 187.60,131.86 190.26,132.99 Q 198.50,136.47 200.00,146.31 Q 200.00,166.06 200.00,185.81 Q 197.72,198.04 185.44,200.00 Q 181.94,200.00 178.44,200.00 Q 153.43,198.91 133.00,192.75 Q 63.35,171.75 26.03,109.87 Q 20.73,101.08 16.69,92.20 Q 1.44,58.70 0.00,21.44 Q 0.00,17.81 0.00,14.19 Q 2.22,2.13 14.31,0.00 Z"/>
    <path d="M 120.31,0.00 Q 122.56,0.00 124.81,0.00 Q 165.25,3.20 187.06,35.69 Q 198.89,53.31 200.00,76.31 Q 200.00,78.06 200.00,79.81 Q 198.08,85.14 193.37,83.87 Q 191.30,83.31 190.41,81.65 Q 189.55,80.03 189.50,77.75 Q 189.09,59.20 179.57,43.60 Q 174.38,35.08 166.85,28.27 Q 148.71,11.88 123.21,10.54 Q 119.19,10.33 117.68,9.21 Q 114.80,7.07 116.56,2.56 Q 117.25,0.80 120.31,0.00 Z"/>
    <path d="M 144.81,50.94 Q 156.63,61.05 157.75,77.00 Q 158.24,83.94 152.61,83.95 Q 150.20,83.96 148.81,82.46 Q 147.28,80.83 147.23,78.25 Q 147.05,69.27 141.29,62.43 Q 133.78,53.52 122.35,52.60 Q 119.05,52.34 117.86,51.56 Q 115.47,49.99 115.81,46.81 Q 116.30,42.25 121.50,42.28 Q 134.80,42.38 144.81,50.94 Z"/>
</svg>
