<svg xmlns="http://www.w3.org/2000/svg" version="1.1" viewBox="0 0 160 160">
    <path fill="#f14336"
          d="M 77.56,0.00 Q 80.19,0.00 82.81,0.00 Q 109.03,1.39 130.37,17.84 A 0.77,0.76 44.1 0 1 130.39,19.04 L 105.83,39.19 A 1.08,1.07 -50.4 0 1 104.64,39.31 Q 83.58,27.85 63.27,35.66 Q 53.62,39.37 46.56,46.37 Q 38.97,53.87 35.00,64.29 Q 22.32,54.32 9.92,44.00 Q 9.66,43.79 9.40,43.76 Q 9.10,43.72 8.79,43.75 Q 30.89,3.20 77.56,0.00 Z"/>
    <path fill="#fbbb00"
          d="M 8.79,43.75 Q 9.10,43.72 9.40,43.76 Q 9.66,43.79 9.92,44.00 Q 22.32,54.32 35.00,64.29 Q 29.79,80.61 35.50,96.71 L 9.54,117.75 Q 0.89,101.32 0.00,82.69 Q 0.00,79.94 0.00,77.19 Q 0.86,59.51 8.79,43.75 Z"/>
    <path fill="#518ef8"
          d="M 160.00,76.56 Q 160.00,80.06 160.00,83.56 Q 157.65,119.64 130.00,142.29 L 104.00,121.21 Q 117.84,112.67 124.23,97.58 A 0.60,0.59 11.7 0 0 123.68,96.75 L 82.60,96.75 A 0.85,0.85 -45.0 0 1 81.75,95.90 L 81.75,65.56 A 0.56,0.56 -0.0 0 1 82.31,65.00 L 157.52,65.00 A 1.29,1.29 85.9 0 1 158.80,66.11 Q 159.53,71.14 160.00,76.56 Z"/>
    <path fill="#28b446"
          d="M 35.50,96.71 Q 44.82,119.76 67.75,126.00 Q 86.19,131.02 104.00,121.21 L 130.00,142.29 Q 109.56,158.67 83.19,160.00 Q 79.81,160.00 76.44,160.00 Q 31.54,156.46 9.54,117.75 L 35.50,96.71 Z"/>
</svg>
