<svg xmlns="http://www.w3.org/2000/svg" version="1.1" viewBox="0 0 80 80">
    <path d="M 80.00,38.81 Q 80.00,39.69 80.00,40.56 Q 76.63,47.22 71.35,41.91 Q 56.51,26.98 41.42,12.30 Q 39.98,10.89 38.55,12.32 Q 24.51,26.38 10.34,40.32 Q 7.34,43.27 5.95,43.87 Q 2.23,45.46 0.00,40.44 Q 0.00,39.56 0.00,38.69 Q 0.36,38.07 0.71,37.45 Q 1.07,36.81 1.56,36.31 Q 14.53,23.34 27.50,10.38 Q 32.49,5.39 33.55,4.69 Q 37.44,2.12 42.12,3.04 Q 45.32,3.67 49.03,6.90 Q 52.85,10.23 56.33,13.92 Q 57.99,15.69 57.39,13.48 Q 57.28,13.08 57.39,12.52 Q 57.51,11.94 57.50,11.00 Q 57.45,6.13 61.42,5.87 Q 63.81,5.71 65.20,7.20 Q 66.66,8.77 66.50,11.50 Q 66.38,13.52 66.55,23.93 A 1.20,1.17 -69.7 0 0 66.93,24.78 Q 72.28,29.83 77.31,35.19 Q 79.56,37.58 80.00,38.81 Z"/>
    <path d="M 26.29,33.44 Q 32.40,27.16 38.51,21.45 Q 40.17,19.91 41.74,21.49 L 68.34,48.20 A 1.35,1.29 -70.2 0 1 68.72,49.06 Q 69.63,63.36 68.75,70.25 Q 68.17,74.80 64.36,76.43 Q 62.45,77.25 57.52,77.25 Q 52.84,77.25 48.06,77.25 A 0.56,0.56 -0.0 0 1 47.50,76.69 L 47.50,57.41 A 0.64,0.61 89.6 0 0 46.88,56.77 L 33.18,56.91 A 0.53,0.52 -90.0 0 0 32.67,57.43 L 32.51,76.55 A 0.70,0.69 -90.0 0 1 31.82,77.25 Q 27.01,77.25 22.49,77.25 Q 17.61,77.25 15.64,76.38 Q 11.88,74.71 11.25,70.25 Q 10.36,63.90 11.28,49.07 A 1.44,1.40 68.6 0 1 11.65,48.19 Q 15.14,44.33 18.89,40.72 Q 23.82,35.98 26.29,33.44 Z"/>
</svg>
