<svg xmlns="http://www.w3.org/2000/svg" version="1.1" viewBox="0 0 180 180">
    <path fill="#fc6249"
          d="M 88.31,0.00 Q 89.06,0.00 89.81,0.00 Q 90.89,0.52 90.37,1.16 A 1.61,0.90 -37.3 0 0 90.00,2.01 L 89.75,38.71 Q 73.29,39.40 64.75,53.22 Q 60.48,60.13 60.50,68.00 Q 60.53,81.03 70.12,89.88 Q 78.50,97.61 90.00,97.75 L 90.00,176.00 A 1.54,0.55 48.1 0 0 90.35,176.85 L 91.29,178.25 L 90.23,179.40 A 0.52,0.44 47.9 0 1 89.50,179.30 Q 67.06,151.22 44.76,123.03 Q 33.61,108.94 32.49,107.24 Q 24.82,95.65 22.21,81.92 Q 20.39,72.37 21.48,62.01 Q 25.00,28.44 54.31,10.06 Q 69.23,0.71 88.31,0.00 Z"/>
    <path fill="#de513c"
          d="M 89.81,0.00 Q 91.31,0.00 92.81,0.00 Q 112.28,1.16 127.44,11.06 Q 147.82,24.38 155.39,47.15 Q 158.56,56.68 158.94,66.75 Q 159.89,91.49 144.56,111.31 Q 133.80,125.23 91.29,178.25 L 90.35,176.85 A 1.54,0.55 48.1 0 1 90.00,176.00 L 90.00,97.75 Q 101.20,97.63 109.31,90.56 Q 119.26,81.90 119.29,68.25 Q 119.32,55.18 109.83,46.43 Q 101.57,38.82 90.25,38.79 L 89.75,38.71 L 90.00,2.01 A 1.61,0.90 -37.3 0 1 90.37,1.16 Q 90.89,0.52 89.81,0.00 Z"/>
    <path fill="#f4f2e6"
          d="M 89.75,38.71 L 90.25,38.79 L 90.00,97.75 Q 78.50,97.61 70.12,89.88 Q 60.53,81.03 60.50,68.00 Q 60.48,60.13 64.75,53.22 Q 73.29,39.40 89.75,38.71 Z"/>
    <path fill="#96d1d9"
          d="M 90.25,38.79 Q 101.57,38.82 109.83,46.43 Q 119.32,55.18 119.29,68.25 Q 119.26,81.90 109.31,90.56 Q 101.20,97.63 90.00,97.75 L 90.25,38.79 Z"/>
</svg>
