<svg xmlns="http://www.w3.org/2000/svg" version="1.1" viewBox="0 0 200 200">
    <path fill="#283593"
          d="M 55.31,0.00 Q 91.69,0.00 128.06,0.00 Q 143.23,1.31 153.69,10.31 Q 170.41,24.71 168.71,48.00 Q 165.67,66.49 159.19,80.94 Q 154.23,91.98 147.06,100.06 Q 132.37,116.63 109.50,116.50 Q 102.92,116.46 75.69,116.68 A 0.64,0.64 -84.2 0 0 75.08,117.18 Q 65.41,160.55 63.69,169.44 Q 63.21,171.93 62.12,173.41 Q 61.18,174.71 58.83,174.89 Q 56.56,175.06 54.29,175.25 Q 42.28,174.88 30.27,174.96 Q 24.80,174.99 21.92,173.74 Q 13.49,170.07 15.00,159.50 Q 20.48,121.07 35.95,20.43 Q 36.98,13.76 38.85,10.46 Q 43.94,1.50 55.31,0.00 Z"/>
    <path fill="#03a9f4"
          d="M 168.71,48.00 Q 189.25,65.10 184.06,92.31 Q 181.70,104.70 178.23,114.24 Q 174.79,123.71 168.93,131.63 Q 162.46,140.37 154.61,144.73 Q 144.61,150.28 132.25,150.00 Q 124.10,149.81 112.93,150.17 A 0.66,0.66 -84.1 0 0 112.32,150.67 Q 107.40,170.08 102.50,189.50 Q 100.24,198.44 91.44,200.00 Q 77.56,200.00 63.69,200.00 Q 54.00,197.83 52.88,188.94 Q 52.59,186.69 53.32,182.09 Q 53.87,178.68 54.29,175.25 Q 56.56,175.06 58.83,174.89 Q 61.18,174.71 62.12,173.41 Q 63.21,171.93 63.69,169.44 Q 65.41,160.55 75.08,117.18 A 0.64,0.64 -84.2 0 1 75.69,116.68 Q 102.92,116.46 109.50,116.50 Q 132.37,116.63 147.06,100.06 Q 154.23,91.98 159.19,80.94 Q 165.67,66.49 168.71,48.00 Z"/>
</svg>
