<svg xmlns="http://www.w3.org/2000/svg" version="1.1" viewBox="0 0 220 220">
    <path fill="#f44336"
          d="M 82.06,0.00 Q 82.44,0.00 82.81,0.00 Q 96.22,4.76 109.52,9.82 A 1.36,1.32 44.2 0 0 110.47,9.82 Q 123.73,4.80 137.06,0.00 Q 137.69,0.00 138.31,0.00 Q 141.40,0.68 144.06,3.94 Q 151.65,13.23 159.67,23.16 A 1.33,1.32 -14.6 0 0 160.50,23.64 Q 173.55,25.59 185.81,27.69 Q 189.27,28.28 190.98,30.57 Q 192.01,31.95 192.63,35.80 Q 194.57,47.74 196.48,59.69 A 1.28,1.28 -75.7 0 0 196.96,60.50 Q 205.57,67.29 214.01,74.31 Q 214.08,74.37 216.22,75.92 Q 219.29,78.15 220.00,82.06 Q 220.00,82.56 220.00,83.06 Q 215.17,96.33 210.18,109.53 A 1.31,1.31 90.0 0 0 210.18,110.47 Q 215.24,123.71 220.00,137.06 Q 220.00,137.69 220.00,138.31 Q 219.38,141.23 217.69,142.69 Q 211.72,147.84 196.96,159.50 A 1.28,1.28 75.7 0 0 196.48,160.31 Q 194.47,172.78 192.50,185.25 Q 191.94,188.81 189.70,190.73 Q 188.19,192.03 184.32,192.63 Q 173.01,194.41 160.74,196.46 A 2.53,2.53 14.7 0 0 159.20,197.36 Q 151.24,207.24 143.54,216.80 Q 141.54,219.28 138.44,220.00 Q 137.56,220.00 136.69,220.00 Q 123.57,215.10 110.47,210.18 A 1.31,1.31 0.0 0 0 109.53,210.18 Q 96.29,215.24 82.94,220.00 Q 82.44,220.00 81.94,220.00 Q 78.66,219.49 76.81,217.19 Q 68.64,206.97 60.31,196.88 A 1.31,1.29 -14.6 0 0 59.51,196.42 Q 47.13,194.44 34.72,192.74 Q 29.03,191.96 28.00,187.25 Q 27.08,183.04 23.58,160.49 A 1.34,1.34 15.4 0 0 23.12,159.68 Q 8.22,147.40 4.06,144.19 Q 0.75,141.64 0.00,138.19 Q 0.00,137.56 0.00,136.94 Q 4.81,123.67 9.82,110.47 A 1.31,1.31 90.0 0 0 9.82,109.53 Q 4.78,96.28 0.00,82.94 Q 0.00,82.31 0.00,81.69 Q 0.93,78.19 4.06,75.81 Q 7.45,73.25 23.11,60.32 A 1.34,1.31 -15.6 0 0 23.58,59.51 Q 25.54,47.26 27.50,35.00 Q 28.12,31.15 30.54,29.19 Q 32.09,27.93 36.30,27.28 Q 47.91,25.47 59.51,23.58 A 1.34,1.31 -74.4 0 0 60.32,23.11 Q 68.93,12.58 77.56,2.06 Q 78.85,0.49 82.06,0.00 ZM 149.9128,65.8757 A 6.79 6.79 0.0 0 0 148.3279,56.4049 L 148.2139,56.3236 A 6.79 6.79 0.0 0 0 138.7431,57.9084 L 70.1272,154.1043 A 6.79 6.79 0.0 0 0 71.7121,163.5751 L 71.8261,163.6564 A 6.79 6.79 0.0 0 0 81.2969,162.0716 L 149.9128,65.8757 ZM 109.85,75.64 A 20.47 20.47 0.0 0 0 89.38,55.17 A 20.47 20.47 0.0 0 0 68.91,75.64 A 20.47 20.47 0.0 0 0 89.38,96.11 A 20.47 20.47 0.0 0 0 109.85,75.64 ZM 151.09,144.37 A 20.47 20.47 0.0 0 0 130.62,123.90 A 20.47 20.47 0.0 0 0 110.15,144.37 A 20.47 20.47 0.0 0 0 130.62,164.84 A 20.47 20.47 0.0 0 0 151.09,144.37 Z"/>
    <rect fill="#fafafa" x="-6.86" y="-65.87" transform="translate(110.02,109.99) rotate(35.5)" width="13.72"
          height="131.74" rx="6.79"/>
    <path fill="#fafafa"
          d="M 109.85,75.64 A 20.47 20.47 0.0 0 1 89.38,96.11 A 20.47 20.47 0.0 0 1 68.91,75.64 A 20.47 20.47 0.0 0 1 89.38,55.17 A 20.47 20.47 0.0 0 1 109.85,75.64 ZM 96.14,75.64 A 6.76 6.76 0.0 0 0 89.38,68.88 A 6.76 6.76 0.0 0 0 82.62,75.64 A 6.76 6.76 0.0 0 0 89.38,82.40 A 6.76 6.76 0.0 0 0 96.14,75.64 Z"/>
    <circle fill="#f44336" cx="89.38" cy="75.64" r="6.76"/>
    <path fill="#fafafa"
          d="M 151.09,144.37 A 20.47 20.47 0.0 0 1 130.62,164.84 A 20.47 20.47 0.0 0 1 110.15,144.37 A 20.47 20.47 0.0 0 1 130.62,123.90 A 20.47 20.47 0.0 0 1 151.09,144.37 ZM 137.37,144.38 A 6.76 6.76 0.0 0 0 130.61,137.62 A 6.76 6.76 0.0 0 0 123.85,144.38 A 6.76 6.76 0.0 0 0 130.61,151.14 A 6.76 6.76 0.0 0 0 137.37,144.38 Z"/>
    <circle fill="#f44336" cx="130.61" cy="144.38" r="6.76"/>
</svg>
