<svg xmlns="http://www.w3.org/2000/svg" version="1.1" viewBox="0 0 180 180">
    <path fill="#fedb41"
          d="M 89.50,4.79 Q 90.12,76.35 89.50,147.92 A 0.51,0.28 15.9 0 0 89.84,148.26 Q 90.08,148.35 89.96,148.75 Q 89.26,148.82 87.50,149.75 Q 64.78,161.71 42.03,173.59 Q 39.27,175.04 37.64,175.16 Q 34.49,175.41 33.12,172.86 Q 32.09,170.94 32.73,167.04 Q 37.04,140.74 41.66,114.49 A 0.95,0.94 -62.4 0 0 41.40,113.65 Q 21.60,94.05 1.56,74.69 Q 0.62,73.78 0.00,71.44 Q 0.00,70.81 0.00,70.19 Q 1.11,66.20 4.25,65.75 Q 31.99,61.75 59.70,57.51 A 0.95,0.93 -80.8 0 0 60.41,56.99 Q 72.54,32.24 84.87,7.59 Q 86.30,4.72 89.50,4.79 Z"/>
    <path fill="#ffcc33"
          d="M 89.50,4.79 Q 92.94,4.42 94.50,7.47 Q 106.89,31.65 119.31,56.43 A 2.14,2.12 80.6 0 0 120.90,57.58 Q 149.21,61.81 176.00,65.75 Q 178.84,66.17 180.00,69.81 Q 180.00,70.94 180.00,72.06 Q 179.24,73.98 177.19,75.94 Q 162.75,89.71 138.85,113.65 A 0.99,0.97 63.4 0 0 138.58,114.50 Q 142.68,140.31 147.27,166.04 Q 147.89,169.57 147.43,171.49 Q 146.46,175.48 142.61,175.23 Q 140.58,175.09 136.30,172.88 Q 113.09,160.88 89.96,148.75 Q 90.08,148.35 89.84,148.26 A 0.51,0.28 15.9 0 1 89.50,147.92 Q 90.12,76.35 89.50,4.79 Z"/>
</svg>
