<svg xmlns="http://www.w3.org/2000/svg" version="1.1" viewBox="0 0 180 180">
    <path fill="#fc6249"
          d="M 76.06,0.00 Q 82.69,0.00 89.31,0.00 Q 90.69,5.16 89.75,10.46 L 84.50,10.54 Q 81.28,10.49 78.06,10.49 Q 75.42,10.49 74.11,9.69 Q 72.04,8.43 71.75,6.00 Q 71.21,1.44 76.06,0.00 Z"/>
    <path fill="#de513c"
          d="M 89.31,0.00 Q 96.56,0.00 103.81,0.00 Q 107.87,1.06 108.19,4.56 Q 108.68,10.07 102.74,10.31 Q 99.00,10.47 95.25,10.54 L 89.75,10.46 Q 90.69,5.16 89.31,0.00 Z"/>
    <path fill="#26879c"
          d="M 84.50,10.54 L 89.75,10.46 L 95.25,10.54 L 95.21,18.00 L 90.00,18.04 L 84.75,17.96 L 84.50,10.54 Z"/>
    <path fill="#fc6249"
          d="M 84.75,17.96 L 90.00,18.04 L 90.00,36.26 A 1.75,1.03 -39.8 0 1 89.69,37.13 Q 89.37,37.61 89.25,38.21 L 85.00,38.54 Q 61.22,40.55 45.29,58.04 Q 31.49,73.20 29.54,93.75 L 29.54,104.25 Q 31.98,128.24 49.56,144.19 Q 64.42,157.66 84.75,159.46 L 90.75,159.79 Q 90.62,159.95 90.44,160.02 A 0.55,0.38 -12.8 0 0 90.06,160.43 Q 89.95,169.22 89.98,178.00 Q 89.99,179.15 89.19,180.00 Q 87.44,180.00 85.69,180.00 Q 60.70,178.31 41.44,163.81 Q 28.10,153.78 19.76,139.14 Q 14.90,130.60 12.19,120.69 Q 3.03,87.09 21.29,56.00 Q 31.59,40.34 47.25,30.04 Q 64.60,19.77 84.75,17.96 Z"/>
    <path fill="#de513c"
          d="M 90.00,18.04 L 95.21,18.00 Q 122.03,20.28 140.94,36.06 Q 166.01,56.99 170.19,88.81 Q 172.41,105.78 167.39,122.31 Q 164.51,131.78 159.30,140.54 Q 143.83,166.55 114.25,176.25 Q 104.49,179.45 92.44,180.00 Q 90.81,180.00 89.19,180.00 Q 89.99,179.15 89.98,178.00 Q 89.95,169.22 90.06,160.43 A 0.55,0.38 -12.8 0 1 90.44,160.02 Q 90.62,159.95 90.75,159.79 L 95.25,159.46 Q 117.99,157.29 133.71,140.96 Q 148.50,125.60 150.21,104.25 Q 151.18,99.03 150.46,93.75 Q 146.34,59.53 116.25,44.25 Q 106.82,39.46 95.25,38.54 L 89.25,38.21 Q 89.37,37.61 89.69,37.13 A 1.75,1.03 -39.8 0 0 90.00,36.26 L 90.00,18.04 Z"/>
    <path fill="#105c6e"
          d="M 47.25,30.04 Q 31.59,40.34 21.29,56.00 Q 19.58,54.27 17.88,52.54 Q 15.74,50.36 14.79,48.82 Q 9.45,40.14 17.19,31.94 Q 20.42,28.52 23.45,25.85 Q 27.38,22.37 30.94,21.68 Q 37.57,20.39 42.75,25.75 Q 45.91,29.02 47.25,30.04 Z"/>
    <path fill="#105c6e"
          d="M 89.25,38.21 L 95.25,38.54 Q 95.25,41.21 95.25,43.89 Q 95.25,47.21 94.59,48.51 Q 93.39,50.87 90.25,51.29 Q 84.69,50.67 84.75,44.50 Q 84.79,39.95 85.00,38.54 L 89.25,38.21 Z"/>
    <path fill="#f4f2e6"
          d="M 85.00,38.54 Q 84.79,39.95 84.75,44.50 Q 84.69,50.67 90.25,51.29 Q 89.68,60.05 90.20,68.81 Q 90.22,69.28 89.75,69.46 Q 87.47,69.81 86.22,71.40 Q 85.33,72.54 85.23,74.98 Q 84.70,87.82 85.17,100.66 Q 85.26,103.29 86.31,104.53 Q 87.75,106.22 90.25,106.54 L 90.00,146.71 Q 84.83,147.26 84.78,152.50 Q 84.75,155.98 84.75,159.46 Q 64.42,157.66 49.56,144.19 Q 31.98,128.24 29.54,104.25 Q 32.57,104.25 35.60,104.25 Q 38.14,104.25 39.33,103.75 Q 41.41,102.86 42.00,100.75 Q 43.19,96.45 39.99,94.65 Q 38.40,93.75 34.84,93.75 Q 32.19,93.75 29.54,93.75 Q 31.49,73.20 45.29,58.04 Q 61.22,40.55 85.00,38.54 Z"/>
    <path fill="#96d1d9"
          d="M 95.25,38.54 Q 106.82,39.46 116.25,44.25 Q 146.34,59.53 150.46,93.75 Q 147.43,93.75 144.40,93.75 Q 141.88,93.75 140.67,94.27 Q 138.58,95.17 138.00,97.25 Q 136.78,101.62 140.09,103.41 Q 141.65,104.25 145.07,104.25 Q 147.64,104.25 150.21,104.25 Q 148.50,125.60 133.71,140.96 Q 117.99,157.29 95.25,159.46 Q 95.25,156.82 95.25,154.17 Q 95.25,150.76 94.58,149.43 Q 93.32,146.97 90.00,146.71 L 90.25,106.54 Q 96.56,106.63 102.86,106.33 Q 104.89,106.24 105.99,105.53 Q 107.58,104.49 108.00,102.75 Q 108.82,99.38 106.62,97.49 Q 105.23,96.28 102.04,96.10 Q 99.11,95.93 96.18,95.83 A 0.53,0.53 -45.0 0 1 95.67,95.32 Q 95.36,85.41 95.52,75.50 Q 95.62,69.52 89.75,69.46 Q 90.22,69.28 90.20,68.81 Q 89.68,60.05 90.25,51.29 Q 93.39,50.87 94.59,48.51 Q 95.25,47.21 95.25,43.89 Q 95.25,41.21 95.25,38.54 Z"/>
    <path fill="#105c6e"
          d="M 89.75,69.46 Q 95.62,69.52 95.52,75.50 Q 95.36,85.41 95.67,95.32 A 0.53,0.53 45.0 0 0 96.18,95.83 Q 99.11,95.93 102.04,96.10 Q 105.23,96.28 106.62,97.49 Q 108.82,99.38 108.00,102.75 Q 107.58,104.49 105.99,105.53 Q 104.89,106.24 102.86,106.33 Q 96.56,106.63 90.25,106.54 Q 87.75,106.22 86.31,104.53 Q 85.26,103.29 85.17,100.66 Q 84.70,87.82 85.23,74.98 Q 85.33,72.54 86.22,71.40 Q 87.47,69.81 89.75,69.46 Z"/>
    <path fill="#105c6e"
          d="M 29.54,93.75 Q 32.19,93.75 34.84,93.75 Q 38.40,93.75 39.99,94.65 Q 43.19,96.45 42.00,100.75 Q 41.41,102.86 39.33,103.75 Q 38.14,104.25 35.60,104.25 Q 32.57,104.25 29.54,104.25 L 29.54,93.75 Z"/>
    <path fill="#105c6e"
          d="M 150.46,93.75 Q 151.18,99.03 150.21,104.25 Q 147.64,104.25 145.07,104.25 Q 141.65,104.25 140.09,103.41 Q 136.78,101.62 138.00,97.25 Q 138.58,95.17 140.67,94.27 Q 141.88,93.75 144.40,93.75 Q 147.43,93.75 150.46,93.75 Z"/>
    <path fill="#105c6e"
          d="M 90.00,146.71 Q 93.32,146.97 94.58,149.43 Q 95.25,150.76 95.25,154.17 Q 95.25,156.82 95.25,159.46 L 90.75,159.79 L 84.75,159.46 Q 84.75,155.98 84.78,152.50 Q 84.83,147.26 90.00,146.71 Z"/>
</svg>
